HIERARCHY
ROOT Hips
{
	OFFSET -3.958830 18.904000 13.208200
	CHANNELS 6 Xposition Yposition Zposition Zrotation Yrotation Xrotation 
	JOINT LHipJoint
	{
		OFFSET 0.000000 0.000000 0.000000
		CHANNELS 3 Zrotation Yrotation Xrotation
		JOINT LeftUpLeg
		{
			OFFSET 1.800000 -1.400000 0.085000
			CHANNELS 3 Zrotation Yrotation Xrotation
			JOINT LeftLeg
			{
				OFFSET 2.215000 -6.000000 0.000000
				CHANNELS 3 Zrotation Yrotation Xrotation
				JOINT LeftFoot
				{
					OFFSET 2.500000 -6.900000 0.000000
					CHANNELS 3 Zrotation Yrotation Xrotation
					JOINT LeftToeBase
					{
						OFFSET 0.200000 -0.500000 1.950000
						CHANNELS 3 Zrotation Yrotation Xrotation
						End Site
						{
							OFFSET 0.000000 0.000000 0.000000
						}
					}
				}
			}
		}
	}
	JOINT RHipJoint
	{
		OFFSET 0.000000 0.000000 0.000000
		CHANNELS 3 Zrotation Yrotation Xrotation
		JOINT RightUpLeg
		{
			OFFSET -1.800000 -1.400000 0.085000
			CHANNELS 3 Zrotation Yrotation Xrotation
			JOINT RightLeg
			{
				OFFSET -2.215000 -6.000000 0.000000
				CHANNELS 3 Zrotation Yrotation Xrotation
				JOINT RightFoot
				{
					OFFSET -2.500000 -6.900000 0.000000
					CHANNELS 3 Zrotation Yrotation Xrotation
					JOINT RightToeBase
					{
						OFFSET -0.200000 -0.500000 1.950000
						CHANNELS 3 Zrotation Yrotation Xrotation
						End Site
						{
							OFFSET 0.000000 0.000000 0.000000
						}
					}
				}
			}
		}
	}
	JOINT LowerBack
	{
		OFFSET 0.000000 0.000000 0.000000
		CHANNELS 3 Zrotation Yrotation Xrotation
		JOINT Spine
		{
			OFFSET -0.087000 1.940000 -0.288900
			CHANNELS 3 Zrotation Yrotation Xrotation
			JOINT Spine1
			{
				OFFSET 0.000000 1.950000 0.060000
				CHANNELS 3 Zrotation Yrotation Xrotation
				JOINT Neck
				{
					OFFSET 0.000000 0.000000 0.000000
					CHANNELS 3 Zrotation Yrotation Xrotation
					JOINT Neck1
					{
						OFFSET 0.000000 1.600000 0.340000
						CHANNELS 3 Zrotation Yrotation Xrotation
						JOINT Head
						{
							OFFSET 0.000000 1.667000 -0.240000
							CHANNELS 3 Zrotation Yrotation Xrotation
							End Site
							{
								OFFSET 0.000000 0.000000 0.000000
							}
						}
					}
				}
				JOINT LeftShoulder
				{
					OFFSET 0.000000 0.000000 0.000000
					CHANNELS 3 Zrotation Yrotation Xrotation
					JOINT LeftArm
					{
						OFFSET 2.700000 1.550000 -0.730000
						CHANNELS 3 Zrotation Yrotation Xrotation
						JOINT LeftForeArm
						{
							OFFSET 5.450000 0.000000 0.000000
							CHANNELS 3 Zrotation Yrotation Xrotation
							JOINT LeftHand
							{
								OFFSET 3.450000 0.000000 0.000000
								CHANNELS 3 Zrotation Yrotation Xrotation
								JOINT LeftHandIndex1
								{
									OFFSET 0.750000 0.000000 0.000000
									CHANNELS 3 Zrotation Yrotation Xrotation
									End Site
									{
										OFFSET 0.000000 0.000000 0.000000
									}
								}
							}
						}
					}
				}
				JOINT RightShoulder
				{
					OFFSET 0.000000 0.000000 0.000000
					CHANNELS 3 Zrotation Yrotation Xrotation
					JOINT RightArm
					{
						OFFSET -2.700000 1.550000 -0.730000
						CHANNELS 3 Zrotation Yrotation Xrotation
						JOINT RightForeArm
						{
							OFFSET -5.450000 0.000000 0.000000
							CHANNELS 3 Zrotation Yrotation Xrotation
							JOINT RightHand
							{
								OFFSET -3.450000 0.000000 0.000000
								CHANNELS 3 Zrotation Yrotation Xrotation
								JOINT RightHandIndex1
								{
									OFFSET -0.750000 0.000000 0.000000
									CHANNELS 3 Zrotation Yrotation Xrotation
									End Site
									{
										OFFSET 0.000000 0.000000 0.000000
									}
								}
							}
						}
					}
				}
			}
		}
	}
}
MOTION
Frames: 9
Frame Time: 0.016667
2.070890 14.381270 -2.951860 -27.306468 17.519462 -5.249836 -16.173341 7.726651 10.173187 49.115473 -6.288761 -82.272292 -82.566464 48.120577 40.364635 3.090421 14.973282 -0.038177 0.664770 0.293350 0.963570 18.350887 -7.433961 1.200537 -32.184360 3.516235 9.419881 35.033595 -27.367854 39.441068 -2.163633 -10.438688 0.786143 0.012300 -0.490660 0.410560 -2.213380 -2.850155 -10.717395 -25.569194 13.069308 65.350905 -2.563123 8.034534 20.091047 6.016091 -2.934844 -25.009192 -11.475082 4.255027 45.117718 -10.141100 6.796750 -18.744830 -7.207337 -29.666643 4.284355 -3.014104 -13.927258 -17.677995 43.389861 -17.003567 -10.005603 -3.955748 3.270314 0.674720 -0.231540 0.581050 0.008370 -3.750038 41.757955 18.077097 -6.107667 3.621688 -3.395981 -7.749167 4.396239 0.052286 2.767424 -0.911937 0.167630 -0.185550 -0.418240 -0.326650 
2.029390 14.359040 -2.845640 -30.283964 17.945462 -6.062352 -16.322273 7.862121 10.327458 57.711211 -2.948891 -75.762615 -67.011969 62.361138 58.126928 3.270496 15.975222 -0.327923 0.707160 0.348470 1.048320 18.265582 -7.261634 0.960483 -30.025722 2.389192 6.927920 30.650243 -27.686792 43.759287 -2.262021 -10.530002 0.752356 0.009860 -0.605460 0.418280 -1.770782 -3.294243 -10.788371 -32.955335 19.473599 60.395488 3.982943 11.768732 20.088071 4.170287 -0.013288 -26.292953 -5.770941 2.889155 52.221932 -8.802080 7.866160 -21.631870 -5.503920 -31.556450 4.498092 -3.792046 -13.637773 -19.615844 48.600192 -21.086007 -13.273820 -3.846870 3.227342 0.781520 -0.307760 0.702290 -0.018390 -1.009769 42.875829 19.124651 -1.105462 3.936493 -2.007672 -5.213657 -1.350066 0.152277 2.988944 -0.512636 0.187450 -0.202640 -0.451420 -0.374710 
1.893640 14.549700 -2.548890 -31.442503 11.079083 3.013164 -16.549669 7.384601 10.280477 90.335169 1.016515 -23.932220 -116.586786 -2.970245 -0.289146 1.542170 7.999698 1.689571 0.743180 0.382110 1.185650 18.245651 -6.784592 1.222383 -27.298978 5.684358 -7.917634 28.873376 -23.039835 44.087204 -1.977295 -9.868382 0.816015 0.016640 -0.696690 0.414530 -1.501353 -2.693125 -10.590840 -47.893105 32.059814 36.213564 17.661099 12.657302 17.193734 -0.635564 4.747487 -28.295443 8.757690 -3.141323 65.142600 -4.907550 9.197400 -18.771610 -7.177897 -36.124129 5.008158 -2.037907 -15.504156 -16.407422 46.780922 -23.549618 -13.103253 -3.567804 2.957810 0.854700 -0.337940 0.780130 -0.100870 11.026372 38.947205 21.273760 2.625523 0.421554 -1.550957 -5.032362 5.201069 0.412264 2.647377 -0.852697 0.190430 -0.233240 -0.470780 -0.444030 
2.060690 14.540450 -2.207110 -31.610874 10.730098 9.922755 -16.292557 6.161307 10.857762 81.634169 -12.706657 6.691128 -94.300250 -46.602418 -29.573639 0.334409 3.314388 3.057607 0.936610 0.606030 1.366040 18.638411 -7.386942 1.023176 -25.884971 6.185598 -18.611622 14.892586 -19.027705 56.155039 -1.957562 -9.950544 0.672173 0.119750 -0.911270 0.445810 -2.478032 0.003704 -10.451040 -59.430650 33.553079 21.675296 23.632838 7.722954 13.132487 -3.746822 4.533613 -31.456673 15.913603 -10.541872 81.530362 -4.033000 9.850620 -15.950390 -10.547687 -37.934027 6.126330 -3.226239 -13.064854 -14.158735 45.814323 -31.877397 -14.271279 -3.237032 2.781599 0.942590 -0.445420 0.960410 -0.122340 19.388952 36.282479 21.610347 10.770979 -2.397920 -1.536507 -6.492884 8.486401 0.361530 2.567107 -1.100161 0.291110 -0.303900 -0.564920 -0.487380 
2.207300 14.491400 -1.984690 -35.338307 3.234969 4.229096 -16.131919 7.236095 10.296395 81.701048 -6.879718 7.047821 -116.999858 -22.904417 -10.738222 0.563989 4.435883 2.618995 1.002790 0.699200 1.471480 18.625331 -8.745425 0.050910 -20.517387 5.469189 -14.993079 -2.059982 -8.364186 57.058553 -1.618226 -8.089377 1.234037 0.167440 -0.984110 0.476640 -2.873790 0.764857 -9.537665 -69.190795 36.557619 9.499290 27.302794 12.009226 14.820412 -5.213922 4.896254 -29.702088 21.310720 -14.686055 82.638450 -4.833350 13.178780 -20.484460 -9.937430 -36.005078 5.679590 -4.439030 -11.455643 -14.527713 54.600627 -45.940706 -23.318729 -2.928548 2.469512 1.008100 -0.464240 1.049980 -0.151650 22.478189 34.814393 21.342188 16.645496 -4.646902 -2.055995 -9.322678 7.283409 0.129616 2.584744 -1.180363 0.300230 -0.307440 -0.587340 -0.541300 
2.338440 14.620990 -1.577050 -47.038379 10.844782 -0.931399 -16.470201 8.558085 9.890847 87.675276 -4.427499 1.045676 -115.886204 -9.572229 -7.024172 0.942905 6.347540 1.965179 0.987700 0.687900 1.543240 18.335484 -8.027943 0.121795 -2.932346 0.186718 2.116252 -9.160650 -3.013840 35.541424 -1.264083 -5.102515 2.290258 0.195210 -1.030180 0.511560 -1.809483 -2.643910 -8.975256 -68.241720 35.358470 4.910316 35.068521 12.922434 21.040580 -6.145692 7.774096 -26.186036 30.150370 -19.227418 73.736065 -8.927410 16.447550 -24.706730 -7.934978 -33.878219 6.225398 -6.267786 -11.819102 -14.069472 71.041852 -55.647327 -39.107700 -2.829177 2.048375 0.999450 -0.409790 1.048720 -0.223010 21.388301 32.219277 20.157148 23.890180 -7.148117 -3.660251 -13.353324 10.495438 -0.612749 2.488765 -1.403293 0.273910 -0.366780 -0.577570 -0.621350 
2.583610 14.352430 -0.983090 -48.638192 10.802773 11.524457 -15.854723 7.763756 8.693739 36.268320 -4.136933 34.656033 -47.886587 -53.150289 -76.946249 -0.341123 1.698931 3.419703 1.092370 0.813100 1.669890 18.744427 -7.786040 1.735683 -7.075730 0.001292 6.806732 -7.083956 -3.070063 -9.131450 -1.415040 -3.967666 2.648415 0.301450 -1.106390 0.487950 -3.256705 -0.315169 -9.376693 -76.417387 23.602448 -14.499594 36.001530 3.105622 18.516957 -9.368867 4.377713 -27.893878 33.558503 -26.516128 90.937820 -3.459500 20.351970 -22.015230 -12.438628 -30.682235 9.335113 -9.825296 -5.036641 -5.542332 94.927386 -59.654192 -59.907842 -2.748026 1.478200 1.173340 -0.459530 1.178770 -0.244230 31.236219 27.832967 18.136656 34.493258 -11.175495 -2.388677 -13.633598 4.471338 0.288138 2.494039 -1.212084 0.216920 -0.297040 -0.601930 -0.709520 
2.815350 14.013880 -1.369710 -49.209884 9.999106 9.558751 -15.642545 9.397492 5.745353 4.395348 1.852630 42.430150 -21.255576 -38.408983 -94.001052 -0.064383 2.675780 3.034954 1.230250 1.004040 1.663500 18.612840 -7.895235 3.381239 -18.666605 0.001936 3.677760 5.827797 -2.704852 -21.180485 -1.681749 -4.917097 2.307933 0.409610 -1.106850 0.456340 -3.388048 -0.578299 -8.941342 -67.684124 21.862245 -9.658449 26.695972 8.065196 26.161015 -9.569246 0.250322 -30.811152 21.020192 -19.307000 107.262175 3.316540 19.923370 -21.517960 -23.175561 -38.777892 12.063252 -4.255350 -1.001943 -8.131492 106.654872 -55.500617 -68.023819 -3.126936 1.864093 1.293460 -0.563590 1.270420 -0.185910 45.282967 35.982035 22.415725 31.267793 -20.393596 -3.049272 -19.138226 -1.656592 0.931119 2.628557 -1.226234 0.225580 -0.189990 -0.622380 -0.659200 
3.048800 13.805920 -1.981910 -55.124161 14.362605 -1.482635 -15.942556 10.782919 5.021211 -4.516139 3.719597 49.006762 -12.962923 -26.734556 -93.684511 0.034481 2.797807 2.987390 1.379700 1.192760 1.687790 18.173955 -7.616230 3.509331 -22.594651 -1.463415 4.541699 16.068338 -2.717856 -17.989433 -1.824930 -5.055083 2.218069 0.451400 -1.202750 0.471570 -2.322934 -3.002092 -8.848319 -54.247098 24.553121 10.934126 20.392582 12.012882 33.787707 -7.904930 -0.907748 -33.060034 12.592095 -11.365159 106.245789 4.289590 18.130270 -32.007830 -20.712907 -44.299460 13.301443 -1.018870 5.092677 -15.992743 115.421533 -50.737954 -77.142452 -3.171295 2.020856 1.405910 -0.739480 1.428050 -0.099930 40.799369 43.873285 25.239183 29.184643 -15.818801 -3.160997 -17.537848 -10.788855 2.504322 2.874136 -0.985582 0.316390 -0.147370 -0.703160 -0.597290 
